<?xml version="1.0" standalone="no"?>
<!DOCTYPE svg PUBLIC "-//W3C//DTD SVG 20010904//EN"
 "http://www.w3.org/TR/2001/REC-SVG-20010904/DTD/svg10.dtd">
<svg version="1.0" xmlns="http://www.w3.org/2000/svg"
 width="400.000000pt" height="250.000000pt" viewBox="0 0 400.000000 250.000000"
 preserveAspectRatio="xMidYMid meet">

<g transform="translate(0.000000,250.000000) scale(0.100000,-0.100000)"
fill="#000000" stroke="none">
<path d="M3073 1783 c-7 -2 -13 -15 -13 -27 0 -16 -18 -37 -61 -71 -33 -26
-58 -49 -55 -52 3 -3 32 16 65 42 51 40 63 46 76 35 23 -19 18 -36 -15 -60
-16 -12 -30 -26 -30 -32 0 -5 17 4 39 21 l38 30 20 -22 c35 -39 35 -45 -4 -82
-30 -28 -44 -34 -66 -30 -68 12 -107 -32 -52 -57 16 -7 25 -19 25 -35 0 -14 6
-23 15 -23 9 0 20 -11 25 -25 22 -57 70 -38 70 29 1 37 5 44 42 70 l42 28 28
-33 c15 -19 28 -37 28 -41 0 -4 -13 -16 -30 -28 -16 -12 -30 -26 -30 -32 0 -5
17 4 39 21 30 24 41 28 49 18 21 -25 16 -35 -41 -82 -32 -26 -56 -50 -53 -52
3 -3 30 15 61 41 30 26 63 46 72 46 10 -1 24 -2 31 -1 22 2 12 61 -23 131 -19
38 -35 75 -35 82 0 7 19 26 41 43 42 31 58 68 42 94 -18 29 -56 24 -103 -13
-25 -20 -48 -36 -52 -36 -4 0 -40 25 -79 55 -69 54 -81 59 -106 48z m105 -64
c35 -28 61 -56 59 -62 -2 -7 -15 -18 -29 -26 -24 -14 -27 -13 -59 24 -45 50
-79 97 -79 107 0 22 52 2 108 -43z m222 6 c9 -10 10 -22 4 -34 -18 -38 -309
-261 -341 -261 -22 0 -15 27 12 44 14 9 25 22 25 29 0 13 65 79 111 113 15 10
54 43 88 72 66 55 81 61 101 37z m-57 -202 c22 -45 23 -52 8 -33 -12 14 -23
33 -27 43 -3 9 -10 17 -15 17 -10 0 10 -38 48 -95 9 -14 13 -15 13 -5 0 13 2
13 10 0 14 -22 12 -60 -3 -60 -7 0 -33 24 -58 53 -81 95 -77 86 -44 113 17 13
32 24 35 24 3 0 18 -26 33 -57z m-255 -15 c-8 -23 -35 -32 -62 -20 -40 18 -31
32 20 32 31 0 44 -4 42 -12z m50 -90 c-4 -39 -33 -51 -43 -18 -5 15 -1 26 12
35 28 22 35 18 31 -17z"/>
<path d="M3114 1732 c9 -15 96 -73 96 -64 0 5 -20 23 -44 40 -43 31 -62 40
-52 24z"/>
<path d="M3290 1665 c-7 -9 -11 -18 -8 -20 3 -3 11 1 18 10 7 9 11 18 8 20 -3
3 -11 -1 -18 -10z"/>
<path d="M3190 1580 c-25 -22 -40 -40 -35 -40 6 0 30 18 55 40 25 21 41 39 35
39 -5 0 -30 -17 -55 -39z"/>
<path d="M2920 1413 c0 -6 18 -13 40 -17 39 -6 40 -7 40 -47 0 -24 4 -38 10
-34 12 7 13 82 2 89 -19 11 -92 18 -92 9z"/>
<path d="M2957 1374 c-8 -8 1 -24 14 -24 5 0 9 7 9 15 0 15 -12 20 -23 9z"/>
<path d="M534 1316 c-41 -41 -46 -92 -13 -145 24 -39 110 -141 119 -141 20 0
80 169 80 226 0 58 -41 94 -107 94 -38 0 -50 -5 -79 -34z m154 -11 c12 -15 22
-39 22 -56 0 -31 -55 -185 -69 -194 -9 -5 -78 73 -110 126 -24 39 -26 67 -9
105 26 57 123 68 166 19z"/>
<path d="M560 1288 c-26 -28 -26 -58 1 -92 57 -72 157 16 103 92 -21 30 -76
30 -104 0z m92 -5 c24 -21 23 -58 -2 -83 -27 -27 -46 -25 -76 5 -18 19 -23 31
-19 48 14 46 63 61 97 30z"/>
<path d="M2902 1329 c2 -6 8 -10 13 -10 5 0 11 4 13 10 2 6 -4 11 -13 11 -9 0
-15 -5 -13 -11z"/>
<path d="M2847 1304 c-8 -8 1 -24 14 -24 5 0 9 7 9 15 0 15 -12 20 -23 9z"/>
<path d="M2790 1265 c0 -8 5 -15 10 -15 6 0 10 7 10 15 0 8 -4 15 -10 15 -5 0
-10 -7 -10 -15z"/>
<path d="M1446 1252 c-3 -6 -1 -14 5 -17 15 -10 25 3 12 16 -7 7 -13 7 -17 1z"/>
<path d="M1512 1251 c2 -7 7 -12 11 -12 12 1 9 15 -3 20 -7 2 -11 -2 -8 -8z"/>
<path d="M1570 1250 c0 -5 7 -10 15 -10 8 0 15 5 15 10 0 6 -7 10 -15 10 -8 0
-15 -4 -15 -10z"/>
<path d="M1640 1250 c0 -5 7 -10 15 -10 8 0 15 5 15 10 0 6 -7 10 -15 10 -8 0
-15 -4 -15 -10z"/>
<path d="M1705 1251 c-6 -11 9 -23 19 -14 9 9 7 23 -3 23 -6 0 -12 -4 -16 -9z"/>
<path d="M1385 1239 c-10 -15 3 -25 16 -12 7 7 7 13 1 17 -6 3 -14 1 -17 -5z"/>
<path d="M1770 1240 c0 -5 7 -10 15 -10 8 0 15 5 15 10 0 6 -7 10 -15 10 -8 0
-15 -4 -15 -10z"/>
<path d="M1836 1243 c-11 -11 -6 -23 9 -23 8 0 15 4 15 9 0 13 -16 22 -24 14z"/>
<path d="M2730 1240 c0 -5 5 -10 10 -10 6 0 10 5 10 10 0 6 -4 10 -10 10 -5 0
-10 -4 -10 -10z"/>
<path d="M1320 1225 c0 -8 5 -15 10 -15 6 0 10 7 10 15 0 8 -4 15 -10 15 -5 0
-10 -7 -10 -15z"/>
<path d="M1900 1220 c0 -5 5 -10 10 -10 6 0 10 5 10 10 0 6 -4 10 -10 10 -5 0
-10 -4 -10 -10z"/>
<path d="M1966 1223 c-11 -11 -6 -23 9 -23 8 0 15 4 15 9 0 13 -16 22 -24 14z"/>
<path d="M2670 1215 c0 -8 5 -15 10 -15 6 0 10 7 10 15 0 8 -4 15 -10 15 -5 0
-10 -7 -10 -15z"/>
<path d="M1252 1209 c2 -6 8 -10 13 -10 5 0 11 4 13 10 2 6 -4 11 -13 11 -9 0
-15 -5 -13 -11z"/>
<path d="M2030 1206 c0 -9 5 -16 10 -16 6 0 10 4 10 9 0 6 -4 13 -10 16 -5 3
-10 -1 -10 -9z"/>
<path d="M1196 1203 c-11 -11 -6 -23 9 -23 8 0 15 4 15 9 0 13 -16 22 -24 14z"/>
<path d="M2096 1203 c-11 -11 -6 -23 9 -23 8 0 15 4 15 9 0 13 -16 22 -24 14z"/>
<path d="M2607 1204 c-8 -8 1 -24 14 -24 5 0 9 7 9 15 0 15 -12 20 -23 9z"/>
<path d="M2156 1192 c-3 -6 -1 -14 5 -17 15 -10 25 3 12 16 -7 7 -13 7 -17 1z"/>
<path d="M1130 1175 c0 -8 5 -15 10 -15 6 0 10 7 10 15 0 8 -4 15 -10 15 -5 0
-10 -7 -10 -15z"/>
<path d="M2220 1175 c0 -9 5 -15 11 -13 6 2 11 8 11 13 0 5 -5 11 -11 13 -6 2
-11 -4 -11 -13z"/>
<path d="M2540 1180 c0 -5 7 -10 15 -10 8 0 15 5 15 10 0 6 -7 10 -15 10 -8 0
-15 -4 -15 -10z"/>
<path d="M2285 1171 c-6 -11 9 -23 19 -14 9 9 7 23 -3 23 -6 0 -12 -4 -16 -9z"/>
<path d="M2350 1165 c0 -9 5 -15 11 -13 6 2 11 8 11 13 0 5 -5 11 -11 13 -6 2
-11 -4 -11 -13z"/>
<path d="M2416 1172 c-3 -6 -1 -14 5 -17 15 -10 25 3 12 16 -7 7 -13 7 -17 1z"/>
<path d="M2480 1170 c0 -5 5 -10 10 -10 6 0 10 5 10 10 0 6 -4 10 -10 10 -5 0
-10 -4 -10 -10z"/>
<path d="M1067 1164 c-8 -8 1 -24 14 -24 5 0 9 7 9 15 0 15 -12 20 -23 9z"/>
<path d="M1007 1144 c-8 -8 1 -24 14 -24 5 0 9 7 9 15 0 15 -12 20 -23 9z"/>
<path d="M940 1110 c0 -5 7 -10 15 -10 8 0 15 5 15 10 0 6 -7 10 -15 10 -8 0
-15 -4 -15 -10z"/>
<path d="M887 1094 c-8 -8 1 -24 14 -24 5 0 9 7 9 15 0 15 -12 20 -23 9z"/>
<path d="M825 1061 c-6 -11 9 -23 19 -14 9 9 7 23 -3 23 -6 0 -12 -4 -16 -9z"/>
<path d="M770 1030 c0 -5 5 -10 10 -10 6 0 10 5 10 10 0 6 -4 10 -10 10 -5 0
-10 -4 -10 -10z"/>
<path d="M710 1000 c0 -5 7 -10 15 -10 8 0 15 5 15 10 0 6 -7 10 -15 10 -8 0
-15 -4 -15 -10z"/>
<path d="M632 968 c2 -15 10 -23 23 -23 30 0 27 39 -3 43 -20 3 -23 0 -20 -20z"/>
<path d="M700 835 c0 -37 4 -65 10 -65 6 0 10 28 10 65 0 37 -4 65 -10 65 -6
0 -10 -28 -10 -65z"/>
<path d="M960 890 c0 -5 5 -10 10 -10 6 0 10 5 10 10 0 6 -4 10 -10 10 -5 0
-10 -4 -10 -10z"/>
<path d="M1112 833 c3 -73 20 -88 28 -26 7 50 34 52 38 3 5 -58 22 -60 22 -3
0 52 -13 69 -45 57 -10 -4 -15 0 -15 15 0 12 -6 21 -15 21 -13 0 -15 -12 -13
-67z"/>
<path d="M1234 876 c0 -13 4 -22 9 -19 10 6 9 43 -2 43 -5 0 -8 -11 -7 -24z"/>
<path d="M1420 888 c0 -7 6 -35 13 -63 18 -67 41 -71 56 -10 6 25 13 45 16 45
3 0 10 -20 16 -45 15 -61 38 -57 56 10 15 60 16 75 4 75 -10 0 -12 -6 -26 -65
-8 -30 -8 -30 -19 15 -16 61 -40 64 -59 8 l-14 -43 -12 43 c-11 39 -31 59 -31
30z"/>
<path d="M1707 893 c-8 -16 -2 -123 8 -123 6 0 11 29 13 65 2 38 -1 65 -7 65
-5 0 -12 -3 -14 -7z"/>
<path d="M1760 835 c0 -64 12 -86 23 -43 6 21 6 21 28 -6 26 -34 36 -28 16 11
-11 20 -12 34 -6 46 11 18 -5 25 -16 7 -12 -20 -25 -9 -25 20 0 17 -4 30 -10
30 -6 0 -10 -28 -10 -65z"/>
<path d="M1900 890 c0 -5 9 -10 20 -10 16 0 19 -8 22 -55 2 -30 8 -55 13 -55
6 0 11 25 13 55 3 47 6 55 22 55 11 0 20 5 20 10 0 6 -25 10 -55 10 -30 0 -55
-4 -55 -10z"/>
<path d="M2402 833 c4 -86 22 -85 26 2 2 54 0 65 -13 65 -13 0 -15 -11 -13
-67z"/>
<path d="M2509 884 c-18 -21 -1 -46 40 -58 32 -9 41 -30 17 -39 -7 -3 -24 1
-35 10 -25 17 -34 13 -26 -10 10 -24 53 -30 82 -12 33 22 26 46 -19 68 -21 10
-38 23 -38 28 0 13 34 11 48 -3 15 -15 26 -4 19 17 -8 20 -70 20 -88 -1z"/>
<path d="M2910 890 c0 -5 4 -10 9 -10 6 0 13 5 16 10 3 6 -1 10 -9 10 -9 0
-16 -4 -16 -10z"/>
<path d="M755 854 c-19 -19 -7 -39 30 -48 41 -10 30 -29 -12 -22 -35 6 -37 5
-19 -9 23 -18 31 -18 57 -5 28 16 23 40 -11 53 -40 15 -38 30 3 22 30 -6 31
-5 13 10 -25 19 -40 19 -61 -1z"/>
<path d="M864 855 c-18 -15 -17 -16 14 -10 41 8 43 -9 2 -24 -19 -6 -30 -17
-30 -29 0 -23 13 -29 55 -27 29 2 29 3 26 46 -4 59 -28 74 -67 44z m46 -54 c0
-14 -18 -23 -30 -16 -6 4 -8 11 -5 16 8 12 35 12 35 0z"/>
<path d="M1023 863 c-24 -9 -13 -23 12 -17 33 8 33 -13 1 -26 -54 -20 -36 -66
22 -54 29 6 32 10 32 43 0 52 -25 72 -67 54z m37 -68 c0 -8 -7 -15 -15 -15 -8
0 -15 7 -15 15 0 8 7 15 15 15 8 0 15 -7 15 -15z"/>
<path d="M1283 863 c-25 -9 -14 -44 17 -54 17 -6 30 -16 30 -21 0 -6 -12 -8
-30 -4 -36 7 -41 -9 -6 -18 35 -9 56 3 56 30 0 19 -7 26 -30 31 -16 3 -30 10
-30 15 0 6 14 7 32 2 29 -6 31 -5 19 10 -13 16 -34 19 -58 9z"/>
<path d="M1609 854 c-11 -13 -9 -14 13 -9 14 4 29 2 32 -4 4 -6 -4 -13 -18
-17 -58 -14 -52 -57 8 -59 l36 -1 0 47 c0 34 -5 49 -16 53 -25 10 -41 7 -55
-10z m51 -54 c0 -12 -28 -25 -36 -17 -9 9 6 27 22 27 8 0 14 -5 14 -10z"/>
<path d="M2032 863 c-21 -4 -23 -9 -20 -51 4 -56 22 -63 26 -11 2 27 8 38 24
42 17 5 18 29 0 26 -4 -1 -17 -4 -30 -6z"/>
<path d="M2103 863 c-24 -9 -13 -23 13 -17 20 5 25 3 22 -7 -3 -8 -15 -15 -27
-17 -28 -4 -38 -29 -19 -48 9 -10 24 -12 46 -8 29 6 32 10 32 43 0 52 -25 72
-67 54z m37 -68 c0 -8 -7 -15 -15 -15 -8 0 -15 7 -15 15 0 8 7 15 15 15 8 0
15 -7 15 -15z"/>
<path d="M2307 852 c-22 -24 -21 -55 1 -75 23 -21 33 -21 58 -2 18 15 18 15
-10 13 -16 -2 -31 2 -33 10 -3 8 6 12 26 12 35 0 41 19 15 44 -20 21 -37 20
-57 -2z m51 -19 c2 -8 -5 -13 -17 -13 -12 0 -21 6 -21 16 0 18 31 15 38 -3z"/>
<path d="M2634 845 c-29 -44 12 -99 56 -75 27 15 25 21 -6 18 -15 -2 -29 3
-31 10 -3 8 6 12 26 12 24 0 31 4 31 20 0 18 -26 40 -49 40 -6 0 -18 -11 -27
-25z m54 -13 c2 -7 -6 -12 -17 -12 -21 0 -27 11 -14 24 9 9 26 2 31 -12z"/>
<path d="M2752 863 c-21 -4 -23 -9 -20 -51 4 -56 22 -63 26 -11 2 27 9 38 22
42 16 4 24 -4 39 -39 11 -24 22 -44 25 -44 7 0 31 47 40 78 11 35 -12 26 -27
-10 l-13 -33 -12 33 c-6 17 -15 32 -21 32 -5 0 -15 2 -23 4 -7 2 -23 1 -36 -1z"/>
<path d="M2978 859 c-26 -15 -24 -75 2 -89 25 -13 60 -4 60 16 0 17 -17 19
-22 2 -3 -7 -12 -9 -22 -5 -12 5 -16 15 -14 34 2 24 7 28 31 26 29 -2 37 11
11 21 -21 8 -26 7 -46 -5z"/>
<path d="M3077 852 c-21 -23 -22 -56 -1 -76 20 -20 35 -20 60 -1 18 15 17 16
-13 10 -26 -5 -33 -3 -33 9 0 11 9 16 30 16 34 0 40 19 14 44 -20 21 -37 20
-57 -2z m51 -19 c2 -8 -5 -13 -17 -13 -12 0 -21 6 -21 16 0 18 31 15 38 -3z"/>
<path d="M3183 863 c-25 -9 -14 -44 17 -54 17 -6 30 -16 30 -21 0 -6 -12 -8
-30 -4 -33 6 -42 -9 -10 -19 26 -8 60 11 60 35 0 12 -10 21 -30 25 -41 9 -39
28 3 20 30 -6 31 -5 13 10 -20 15 -32 17 -53 8z"/>
<path d="M960 815 c0 -25 5 -45 10 -45 6 0 10 20 10 45 0 25 -4 45 -10 45 -5
0 -10 -20 -10 -45z"/>
<path d="M2190 851 c0 -23 32 -81 44 -81 8 0 21 20 29 45 13 36 13 45 3 45 -7
0 -18 -15 -23 -32 l-10 -33 -13 33 c-11 29 -30 44 -30 23z"/>
<path d="M2910 815 c0 -33 4 -45 15 -45 11 0 15 12 15 45 0 33 -4 45 -15 45
-11 0 -15 -12 -15 -45z"/>
<path d="M3009 655 c-1 -3 -2 -11 -3 -17 0 -7 -14 -14 -30 -16 -19 -3 -26 0
-21 8 5 8 1 8 -13 -1 -12 -7 -17 -19 -14 -31 5 -20 -23 -58 -44 -58 -10 0 -12
10 -9 33 l5 32 -10 -30 c-12 -39 2 -55 32 -36 16 10 23 10 26 2 2 -6 11 -11
20 -11 13 0 14 2 4 9 -8 5 -12 21 -10 37 2 23 9 30 30 32 25 3 26 2 21 -40
l-5 -43 21 33 c21 33 29 59 10 32 -8 -11 -9 -4 -5 28 4 23 4 42 1 42 -3 0 -6
-2 -6 -5z"/>
<path d="M1781 625 c0 -11 3 -38 8 -60 7 -39 7 -40 20 -16 8 14 9 21 2 17 -7
-5 -11 2 -12 16 0 13 -4 32 -9 43 l-9 20 0 -20z"/>
<path d="M1892 610 c0 -19 2 -27 5 -17 2 9 2 25 0 35 -3 9 -5 1 -5 -18z"/>
<path d="M1832 606 c-7 -15 -8 -24 -2 -21 6 4 10 -6 10 -24 0 -17 4 -31 8 -31
7 0 6 34 -1 89 -1 8 -8 2 -15 -13z"/>
<path d="M1959 602 c16 -11 7 -32 -14 -32 -9 0 -12 6 -8 18 5 13 3 14 -6 6
-22 -20 -9 -59 19 -61 22 -1 22 -1 3 4 -13 2 -23 8 -23 11 0 4 10 12 23 17 25
11 29 36 7 42 -12 4 -13 3 -1 -5z"/>
<path d="M2110 592 c-17 -13 -21 -24 -16 -40 4 -12 12 -22 18 -22 7 0 7 5 -1
14 -14 16 -5 42 16 51 26 9 38 -11 24 -41 -11 -24 -10 -26 3 -14 9 7 16 19 16
26 0 8 7 14 15 14 9 0 15 -9 15 -25 0 -29 21 -33 41 -7 11 14 11 15 -1 5 -23
-21 -33 -15 -27 16 5 25 4 28 -17 24 -13 -3 -27 0 -30 6 -10 16 -31 13 -56 -7z"/>
<path d="M2267 603 c-11 -10 -8 -61 4 -69 6 -3 16 -1 22 5 14 14 30 15 22 1
-3 -5 -2 -10 3 -10 6 0 12 16 14 35 2 19 0 35 -4 35 -4 0 -8 -6 -8 -13 0 -8
-9 -22 -19 -31 -23 -21 -34 -8 -25 29 6 25 3 31 -9 18z"/>
<path d="M2359 593 c-12 -16 -12 -17 2 -6 9 7 19 10 22 6 4 -3 7 -1 7 5 0 17
-16 15 -31 -5z"/>
<path d="M2439 593 c-13 -16 -12 -17 2 -5 14 10 18 10 23 -4 3 -8 6 -24 6 -35
0 -21 11 -24 27 -8 8 8 13 8 17 0 4 -6 17 -11 29 -10 21 0 21 1 -3 11 l-25 10
27 10 c28 10 43 34 28 43 -6 4 -10 -1 -10 -9 0 -16 -18 -31 -27 -22 -3 3 0 12
7 21 11 13 10 15 -1 10 -8 -3 -23 -20 -33 -38 l-20 -32 -5 34 c-7 40 -22 49
-42 24z"/>
<path d="M2744 579 c3 -17 6 -36 6 -42 0 -5 9 -2 20 8 18 16 20 16 20 2 0 -10
8 -17 18 -16 10 0 12 3 5 6 -7 2 -13 19 -13 36 l-1 32 -16 -30 -17 -30 -8 33
c-11 41 -23 42 -14 1z"/>
<path d="M2830 586 c0 -31 6 -34 13 -6 3 11 1 23 -4 26 -5 3 -9 -6 -9 -20z"/>
<path d="M3050 574 c10 -45 12 -47 36 -30 19 14 19 14 -1 13 -15 -2 -21 5 -23
26 -2 15 -7 27 -12 27 -4 0 -4 -16 0 -36z"/>
<path d="M3252 595 c-22 -16 -30 -49 -13 -59 5 -4 7 2 4 12 -6 24 22 53 43 45
11 -4 14 -14 10 -32 -5 -25 -5 -25 6 -3 15 30 38 28 38 -3 0 -25 23 -35 35
-15 4 6 -1 7 -11 3 -14 -5 -16 -1 -12 24 4 27 1 30 -21 30 -15 0 -33 3 -41 6
-8 4 -25 0 -38 -8z"/>
<path d="M3402 593 c-8 -15 0 -63 10 -63 2 0 3 18 3 40 0 45 -1 47 -13 23z"/>
<path d="M2400 563 c1 -36 1 -37 16 -18 8 11 10 21 5 23 -5 2 -7 10 -4 18 3 8
0 14 -6 14 -6 0 -11 -17 -11 -37z"/>
<path d="M2603 585 c0 -8 4 -15 8 -15 4 0 11 -9 14 -20 4 -11 11 -17 17 -14 6
4 7 9 0 13 -5 3 -12 16 -16 29 -8 25 -23 30 -23 7z"/>
<path d="M2657 580 c-3 -11 -3 -20 -1 -20 2 0 8 9 14 20 6 11 7 20 2 20 -6 0
-12 -9 -15 -20z"/>
<path d="M3164 569 c17 -40 26 -41 49 -1 10 17 14 32 9 32 -5 0 -13 -11 -16
-25 -4 -14 -10 -25 -15 -25 -5 0 -12 11 -15 25 -4 14 -11 25 -16 25 -5 0 -3
-14 4 -31z"/>
<path d="M2054 540 c-6 -28 -7 -47 -3 -43 11 11 28 93 20 93 -4 0 -12 -23 -17
-50z"/>
<path d="M1994 558 l-19 -23 23 19 c21 18 27 26 19 26 -2 0 -12 -10 -23 -22z"/>
<path d="M3455 540 c-3 -5 -1 -10 4 -10 6 0 11 5 11 10 0 6 -2 10 -4 10 -3 0
-8 -4 -11 -10z"/>
</g>
</svg>
